<svg xmlns="http://www.w3.org/2000/svg" viewBox="0 0 213.3 213.3"><path fill="#fff" d="M122.2 192.4a86 86 0 0 1-99-100.7c.3-1.7 0-3.5-.9-5A48.4 48.4 0 0 1 64.7 15a7.5 7.5 0 0 0 0-15A63.4 63.4 0 0 0 7.9 91.5a101.1 101.1 0 0 0 116.7 115.7 7.5 7.5 0 0 0-2.4-14.8zm84.8-66.9A101.1 101.1 0 0 0 92 7.9a7.5 7.5 0 1 0 2.3 14.8 86 86 0 0 1 97.6 102.2c-.3 1.6-.1 3.2.6 4.6a48.4 48.4 0 0 1-43.8 68.7 7.5 7.5 0 0 0 0 15 63.4 63.4 0 0 0 58.4-87.7z"/><path fill="#fff" d="M145.9 124.7a23 23 0 0 0-2.6-11.4 22 22 0 0 0-7.3-7.7c-3-2-6.9-3.7-11.3-5.1-4.3-1.4-9.3-2.7-14.8-4a242 242 0 0 1-9.5-2.2c-1.9-.6-3.8-1.3-5.6-2.2-1.8-1-3.3-2-4.4-3.3a7 7 0 0 1-1.6-4.7c0-2.9 1.6-5.3 4.7-7.4 3.1-2 7.3-3 12.3-3 5.6 0 9.5.9 12 2.8 2.4 1.9 4.6 4.5 6.3 7.9 1.4 2.4 2.7 4 3.8 5A7.9 7.9 0 0 0 133 91c2.5 0 4.6-.9 6.2-2.6a8.2 8.2 0 0 0 2.5-5.8c0-2.3-.7-4.7-2-7.2a23.2 23.2 0 0 0-6.3-7 34 34 0 0 0-10.8-5.4 53 53 0 0 0-15.5-2c-7.4 0-14 1-19.4 3-5.5 2-9.8 5-12.7 8.8a21 21 0 0 0-4.4 13 20 20 0 0 0 4.2 12.9c2.7 3.4 6.5 6.2 11.2 8.2a98 98 0 0 0 17.5 5.2c5.2 1 9.4 2.1 12.5 3.1 3.1 1 5.7 2.4 7.6 4.2 2 1.9 3 4.3 3 7.2 0 3.8-1.8 6.8-5.5 9.4a25 25 0 0 1-14.2 3.7c-4.2 0-7.7-.6-10.3-1.9a16 16 0 0 1-6-4.7 35.3 35.3 0 0 1-4-7 14 14 0 0 0-3.7-5.5 7.9 7.9 0 0 0-5.3-1.8c-2.6 0-4.7.8-6.3 2.3a7.4 7.4 0 0 0-2.5 5.6c0 3.8 1.4 7.7 4.1 11.6 2.8 4 6.4 7.2 10.8 9.6 6.2 3.3 14.2 5 23.7 5a54 54 0 0 0 20.7-3.7 29.8 29.8 0 0 0 13.3-10c3-4.3 4.5-9.2 4.5-14.5z"/></svg>