<svg xmlns="http://www.w3.org/2000/svg" viewBox="0 0 198.7 198.7"><path fill="#fff" d="M197.4 42.5a7.5 7.5 0 0 0-10.4-2l-23.3 16.3a7.5 7.5 0 0 0-3.2 6.4v4.5c0 47.6-36.2 96.8-96.8 96.8a96.4 96.4 0 0 1-35.8-6.9l36-10a7.5 7.5 0 1 0-4.1-14.5L5.5 148.3a7.5 7.5 0 0 0-2 13.5c18 11.6 38.8 17.7 60.2 17.7 42 0 68.4-19.9 83.1-36.5a115.5 115.5 0 0 0 28.8-76.2l20-13.9c3.3-2.3 4.2-7 1.8-10.4zM16.6 40.1L92 78.5a7.5 7.5 0 0 0 10.7-8.4 29.2 29.2 0 0 1 49.7-26.6 7.7 7.7 0 0 0 8 1.9l23.4-8.5a7.5 7.5 0 1 0-5.1-14.1l-19 6.9a44.2 44.2 0 0 0-72.5 29.5l-64-32.4A7.5 7.5 0 1 0 16.6 40zM12.7 85l16.6 4.6a7.5 7.5 0 0 0 9.2-5.2c1.1-4-1.2-8.1-5.2-9.2l-16.6-4.6a7.5 7.5 0 0 0-4 14.5zm14.6 22.4a7.5 7.5 0 1 0 .5 15l16.6-.7a7.5 7.5 0 0 0-.6-15l-16.5.7z"/></svg>