<svg xmlns="http://www.w3.org/2000/svg" viewBox="0 0 209.7 209.7"><path fill="#fff" d="M173 29.2H36.7A36.6 36.6 0 0 0 0 65.8v78a36.6 36.6 0 0 0 36.6 36.7h136.5a36.6 36.6 0 0 0 36.6-36.6v-78A36.6 36.6 0 0 0 173 29.1zm21.7 114.7c0 11.9-9.7 21.6-21.6 21.6H36.6c-12 0-21.6-9.7-21.6-21.6v-78c0-12 9.7-21.7 21.6-21.7h136.5c11.9 0 21.6 9.7 21.6 21.6v78z"/><path fill="#fff" d="M145 98.6L89.6 61.9A7.5 7.5 0 0 0 78 68.2v73.3a7.5 7.5 0 0 0 11.6 6.3l55.6-36.7a7.5 7.5 0 0 0 0-12.5zm-52.1 29V82l34.4 22.7L93 127.6z"/></svg>