<svg xmlns="http://www.w3.org/2000/svg" viewBox="0 0 415.2 415.2"><path fill="#2fb4c2" d="M399.2 46.4v322.4c0 14.4-12 26.4-26.4 26.4H272V248.8h84c4.8 0 8-4 8-8V184c0-4.8-3.2-8-8-8h-84v-22.4a29.5 29.5 0 0 1 29.6-29.6h56.8c4.8 0 8-3.2 8-8V59.2c0-4.8-3.2-8-8-8h-72.8c-50.4.8-86.4 44-86.4 102.4V176h-41.6c-4.8 0-8 3.2-8 8v56.8c0 4 3.2 8 8 8h40.8v146.4h-156c-14.4 0-26.4-12-26.4-26.4V46.4C16 32 28 20 42.4 20h330.4c14.4 0 26.4 12 26.4 26.4z"/><path fill="#42210b" d="M207.2 411.2H42.4A42.7 42.7 0 0 1 0 368.8V46.4A42.7 42.7 0 0 1 42.4 4h330.4a42.7 42.7 0 0 1 42.4 42.4v322.4a42.7 42.7 0 0 1-42.4 42.4H264c-4 0-8-4-8-8V240.8c0-4.8 4-8 8-8h84V192h-84c-4 0-8-4-8-8v-30.4a45.6 45.6 0 0 1 45.6-45.6h48.8V67.2h-64.8c-40.8.8-70.4 36.8-70.4 86.4V184c0 4-3.2 8-8 8h-41.6v40.8h40.8c4.8 0 8 3.2 8 8v162.4c.8 4.8-3.2 8-7.2 8zm-57.6-170.4V184c0-4.8 3.2-8 8-8h40.8v-22.4c0-59.2 36-102.4 86.4-102.4h73.6c4.8 0 8 3.2 8 8V116c0 4.8-3.2 8-8 8h-56.8a29.5 29.5 0 0 0-29.6 29.6V176h84c4.8 0 8 3.2 8 8v56.8c0 4-3.2 8-8 8h-84v146.4h100.8c14.4 0 26.4-12 26.4-26.4V46.4c0-14.4-12-26.4-26.4-26.4H42.4C28 20 16 32 16 46.4v322.4c0 14.4 12 26.4 26.4 26.4h156V248.8h-40.8a8 8 0 0 1-8-8z"/><path fill="#1d9aae" d="M92.8 20l-57.6 1.6a26.7 26.7 0 0 0-18.4 24.8v322.4c0 9.6 5.6 18.4 13.6 23.2V83.2a56.2 56.2 0 0 1 53.6-56L240.8 20h-148z"/></svg>