<svg xmlns="http://www.w3.org/2000/svg" viewBox="0 0 459.4 459.4"><path fill="#6cd3d8" d="M404.5 334.6a49.3 49.3 0 0 1-35.2 84 45.3 45.3 0 0 1-34.4-14.4l-8.8-8.8a30.3 30.3 0 0 0-22.4-9.6c-4 0-8 .8-12 2.4a167.7 167.7 0 0 1-180.8-37.6A169.9 169.9 0 0 1 73.3 169c4.8-12 2.4-25.6-7.2-34.4l-11.2-10.4a49.3 49.3 0 0 1 0-69.6c8.8-10.4 21.6-15.2 34.4-15.2s25.6 4.8 35.2 14.4L135.7 65a31.6 31.6 0 0 0 22.4 9.6c4 0 7.2-.8 10.4-1.6 20-7.2 40-11.2 60.8-11.2 44.8 0 88 18.4 119.2 49.6a167.8 167.8 0 0 1 38.4 179.2c-4 12-1.6 25.6 7.2 34.4l10.4 9.6z"/><path fill="#fff" d="M251.1 209.8l-10.6-3.4-6.9-2.2a271.7 271.7 0 0 0-12-4c-17-6.9-20.6-16.4-20.6-23.2 0-9.8 4.7-26.2 35.8-26.2 5.2 0 13.4 1.7 23.6 3.9a77.7 77.7 0 0 0 21.2 3.3c16.7 0 18.6-8.3 18.6-14.6 0-8.8-7.3-15.8-22.4-21.5l-.2-.1-.2-.1c-11.4-3.3-24.6-5-38.2-5-23.2 0-43.6 5.9-59 17a57.4 57.4 0 0 0-25.2 48c0 16.6 6.4 29.5 18.9 38.4a150 150 0 0 0 46.4 19.2 216 216 0 0 1 31.8 11.6c11.7 6.1 17.3 14.9 17.3 26.8 0 9.2-3.5 16.3-10.7 21.6l-.2.1a39.1 39.1 0 0 1-24.9 8.5c-9 0-20.1-1.8-33-5.4a101.6 101.6 0 0 0-28.3-5.8c-1.5-.2-3-.2-4.3-.2-6.6 0-11.2 1.9-13.9 5.7-2.3 3.3-2.3 6.9-2.3 9.1 0 13.4 15.1 19.4 28.4 23.2 12.4 3.9 27.6 5.8 45.4 5.8 25 0 46.4-5.7 63.5-16.8l.1-.1.1-.1a61.1 61.1 0 0 0 26-51.2c.1-28.7-21.5-49.7-64.2-62.3z"/><path fill="#1d9aae" d="M424.8 314.3l-9.2-9.2a5.8 5.8 0 0 1-.7-4.2A197.6 197.6 0 0 0 304.4 47.7a197.7 197.7 0 0 0-144.1-2.5l-.2.1-.2.1-1.1.3c-.8 0-1.5-.5-1.9-1l-12.1-11.3a76 76 0 0 0-55.5-23 78.8 78.8 0 0 0-55.5 23.8 77.8 77.8 0 0 0 0 110.3l.1.1L45.1 155c.3.3.9 1.1.3 3.7a197.7 197.7 0 0 0 44.4 212.2c37.4 37.4 87.1 58 139.9 58a200 200 0 0 0 72.7-13.7l.2-.1.2-.1.6-.3h.4c.4 0 1.5.3 2.1.9l8.8 8.8c14.5 14.9 34 23.1 54.9 23.1s40.6-8.2 55.4-23a75.4 75.4 0 0 0 23.1-54.3c-.1-21-8.2-40.9-23.3-55.9zm-24.6 86.4a44.5 44.5 0 0 1-62.6 0l-8.7-8.7a34.1 34.1 0 0 0-26-11.2c-4.6 0-9.3.9-13.9 2.8a162.6 162.6 0 0 1-175.3-36.5 166.1 166.1 0 0 1-36.5-177 36.8 36.8 0 0 0-8.3-39.8l-.1-.1-11.2-10.4a44.3 44.3 0 0 1 31.7-75.4c12.4 0 23.1 4.4 31.7 12.9l11.1 11.1a34.1 34.1 0 0 0 26 11.2c4.4 0 9 0 12.6-2.1a172.5 172.5 0 0 1 58.6-10.7c42.3 0 85.5 18 115.7 48.1a165 165 0 0 1 37.3 173.9 36.7 36.7 0 0 0 8.3 39.7l9.6 9.6a44.4 44.4 0 0 1 0 62.6z"/><path fill="#42210b" d="M157.3 311.4c0 8 8 13.6 24.8 18.4 12.8 4 28 5.6 44 5.6a109 109 0 0 0 60.8-16c16-12 24-28 24-47.2 0-26.4-20-45.6-60.8-57.6-7.2-2.4-12.8-4-17.6-5.6-4.8-1.6-8.8-3.2-12-4-20-8-24-20-24-28 0-11.2 5.6-31.2 40.8-31.2 5.6 0 13.6 1.6 24.8 4 12 3.2 17.6 3.2 20 3.2 13.6 0 13.6-5.6 13.6-9.6 0-6.4-6.4-12-19.2-16.8-11.2-3.2-24-4.8-36.8-4.8a94.6 94.6 0 0 0-56 16 52.2 52.2 0 0 0-23.2 44c0 15.2 5.6 26.4 16.8 34.4 8.8 6.4 24 12.8 44.8 18.4 16 4.8 26.4 8.8 32.8 12 16.8 8.8 20 21.6 20 31.2a30 30 0 0 1-12.8 25.6 44 44 0 0 1-28 9.6c-8.8 0-20-1.6-34.4-5.6a100 100 0 0 0-27.2-5.6c-15.2-1.6-15.2 5.6-15.2 9.6zm20.8 34.4c-24-6.4-36.8-17.6-36.8-33.6 0-8 3.2-28 32-28 6.4 0 16.8 2.4 31.2 6.4 12.8 3.2 23.2 5.6 30.4 5.6 7.2 0 12.8-2.4 17.6-6.4 4.8-4 6.4-8 6.4-12.8s-1.6-11.2-11.2-16.8a223 223 0 0 0-29.6-10.4c-23.2-6.4-39.2-12.8-49.6-20.8a54.6 54.6 0 0 1-24-47.2 68.8 68.8 0 0 1 29.6-56.8c17.6-12.8 40-19.2 65.6-19.2a174 174 0 0 1 41.6 5.6c20 7.2 30.4 17.6 30.4 32 0 8-3.2 25.6-29.6 25.6-4.8 0-12.8-1.6-24-4-12-3.2-18.4-3.2-20.8-3.2-24.8 0-24.8 10.4-24.8 15.2 0 2.4 0 8 14.4 13.6 2.4 1.6 6.4 2.4 10.4 4 4.8 1.6 10.4 3.2 17.6 5.6 48 14.4 72 38.4 72 72.8a72.3 72.3 0 0 1-31.2 60.8 123.5 123.5 0 0 1-70.4 19.2 216 216 0 0 1-47.2-7.2zM141.3 37a73.2 73.2 0 0 0-104 0 72.4 72.4 0 0 0 0 103.2l11.2 11.2c2.4 2.4 3.2 5.6 1.6 8.8a193.3 193.3 0 0 0 250.4 250.4c.8 0 1.6-.8 3.2-.8 2.4 0 4 .8 5.6 2.4l8.8 8.8a72.4 72.4 0 0 0 103.2 0 72.4 72.4 0 0 0 0-103.2l-9.6-9.6c-2.4-2.4-3.2-5.6-1.6-8.8 27.2-71.2 9.6-151.2-44-204.8s-133.6-71.2-204.8-44c-3.2.8-6.4 0-8.8-1.6l-11.2-12zM26.1 25.8a90.3 90.3 0 0 1 126.4 0l8 8a209.1 209.1 0 0 1 266.4 266.4l6.4 6.4a90.3 90.3 0 0 1 0 126.4c-17.6 17.6-40 26.4-63.2 26.4s-45.6-8.8-63.2-26.4l-4.8-5.6c-76.8 28-162.4 9.6-220-48s-76.8-144-48.8-220.8l-7.2-7.2a89.3 89.3 0 0 1 0-125.6z"/></svg>