<svg xmlns="http://www.w3.org/2000/svg" viewBox="0 0 446.9 446.9"><path fill="#1d9aae" d="M400.9 100c6.6-2.8 17.7-47.5 11.8-45-7.1 3-24.2 31-30.8 35a18.8 18.8 0 0 0-7.5-8.3c-2.4-1.4-5-8.8-6.5-11.3a112 112 0 0 0-9.9-13.8l-.4-.5-.5-.4a105 105 0 0 0-126.4-11.4 105 105 0 0 0-49.5 89.3v3.3a153.4 153.4 0 0 1-72.1-43.6l-.2-.2-23.3-23.3-3.4 18.8c-3.4 18.7 2.7 40.5 18.7 66.4l-17.3-7-15-6-15.3-6.3 1.6 16.5c2.1 22 19.2 44.1 33.1 58.7l.5.5.5.4c1.6 1.3 3.1 2.8 4.8 4.5 1.8 1.8 3.7 3.7 6 5.6l.1.1.1.1.7 1.5 1.1 1.1.6.6c-4.6-.6-12.2-1.4-25.1-2.7l-12.9-1.3-16.5-1.7 6.2 15.4a44.6 44.6 0 0 0 10.2 15.4l.2.3.3.2c18 15.7 45.1 28.6 66.8 39.1l5.6 2.7.6.2c.5.2 1.5.6 2.3 1.1 1.2.6 2.5 1.3 4 1.8l.1.4 2.3 6.8h1.1a202.5 202.5 0 0 1-116.9 24.8l-27.4-2.4L22.8 345c1.4 1.4 2.9 3 4.4 4.8 1.7 2 3.4 3.8 5.3 5.7l.2.2a221.4 221.4 0 0 0 373.6-160.9c0-21.3-1.1-36.6-7.4-57 11.8-3.3 23.3-13.5 31.3-22.7l4.3-20.7c-.3-.3-32.9 5.3-33.6 5.7z"/><path fill="#6cd3d8" d="M384.5 123.1c.2-.3.7-.9 1.6-1.2 11.6-2.9 29.4-17.5 37.2-26.4l-15.4 1.7a15.8 15.8 0 0 1-6.6 3.6h-.3l-.5.1a30 30 0 0 1-4-1.7c19.8-21.5 11.5-40.4 11.8-43C404.1 59 380 88.3 375.1 90h-.1l-.1.1c-2.9 1.1-3.8-1.4-5.1-3.3-2.2-3-2.2-8.5-4.4-11.7-5.3-7.7-11.7-13.8-18.4-20.5l-.2-.2-.2-.2a100 100 0 0 0-167.2 64.7c-.5 5-.4 10-.4 15 0 1.6-.6 2-1 2.2-1.4 1-2.2 1.1-2.5 1.1h-.3l-.2-.2a160 160 0 0 1-76.8-45.7h-.1L81.7 74.6 80 84.1a69.1 69.1 0 0 0 5.6 38.8c2.6 6.1 5.6 12 8.9 17.8 1.5 2.6 10.2 13.7 6.7 16.1a4 4 0 0 1-2.1.6c-.4 0-1.1 0-1.6-.4h-.1l-.1-.2c-1.8-1.2-8-3.7-22.7-9.6l-15-6-7.7-3.3.8 8.3c2 20.6 18.4 41.7 31.8 55.8l.2.2.3.2c1.8 1.4 3.4 3.1 5.2 4.8 2.5 2.5 17.2 14 14.6 17.3-.9 1.1-2 1.6-2.7 1.6h-.5l-.3-.3h-.3c-2-.8-9.2-1.6-31.3-3.8l-13-1.3-8.2-.9c3.2 8 6.1 15.3 12.2 21.4l.1.1.1.1C72.8 251.8 83 263 97.2 270.2c7.7 4 16.6 10.8 24.3 14.7 7.1 3.6 15.7 2.4 21.9 7.2 2 1.6 9.8 2.4 5.1 6.2a95 95 0 0 1-28.2 14.3 262.4 262.4 0 0 1-31.2 9.8 249.8 249.8 0 0 1-80 3.5l9.7 9.7 4.6 5 5 5.4.1.1a217 217 0 0 0 149 59c119.2 0 212.8-96 212.8-215.3 0-21.5-5.3-41.8-6.5-64 0-.5-.2-.6.5-2.4l.2-.3z"/><path fill="#42210b" d="M170 126.2a109 109 0 0 1 52-88.8 110.6 110.6 0 0 1 59.2-16.8 110 110 0 0 1 78.4 32c7.2 7.2 13.6 16 19.2 24.8 6.4-4.8 11.2-12 16.8-18.4 4-4.8 8-10.4 12-13.6 2.4-1.6 4.8-2.4 7.2-1.6 2.4.8 7.2 3.2 8.8 11.2 1.6 8 0 20-4 31.2 7.2-1.6 14.4-3.2 16.8-4s4.8 0 7.2.8c2.4 1.6 3.2 3.2 3.2 6.4.8 6.4-4.8 37.6-39.2 51.2 4.8 19.2 8 39.2 8 58.4a227.6 227.6 0 0 1-227.2 227.2A226.7 226.7 0 0 1 1.2 327.8c-1.6-2.4-1.6-6.4 0-8.8s4.8-4 8-3.2c41.6 8 85.6 2.4 123.2-16.8-39.2-18.4-88.8-43.2-90.4-80 0-2.4.8-4 2.4-5.6s3.2-2.4 5.6-2.4c3.2 0 18.4.8 32.8 2.4-19.2-20-42.4-50.4-36-79.2.8-2.4 2.4-4 4-5.6 2.4-.8 4.8-1.6 6.4 0 0 0 13.6 5.6 26.4 10.4-14.4-29.6-15.2-54.4-3.2-75.2 1.6-2.4 4-4 7.2-4s5.6 1.6 7.2 4c3.2 5.6 5.6 9.6 8.8 14.4 14.4 21.6 38.4 38.4 66.4 48zm16 10.4c0 2.4-.8 4.8-3.2 6.4-2.4 1.6-4.8 2.4-7.2 1.6-36-9.6-66.4-29.6-87.2-56-.8-.8-.8-1.6-1.6-2.4-3.2 18.4 3.2 40 20 66.4 2.4 3.2 1.6 7.2-.8 10.4a8.4 8.4 0 0 1-10.4.8c-2.4-1.6-23.2-9.6-36.8-15.2 2.4 23.2 26.4 50.4 49.6 70.4 3.2 2.4 4 6.4 1.6 10.4-2.4 3.2-6.4 4.8-9.6 3.2-2.4-.8-28-3.2-43.2-4.8 10.4 24.8 54.4 46.4 85.6 60 2.4.8 4.8 2.4 7.2 3.2 3.2.8 4.8 4 5.6 6.4 0 3.2-.8 6.4-3.2 8A213.6 213.6 0 0 1 23.6 335c40 48 99.2 76 162.4 76a211 211 0 0 0 211.2-211.2c0-20.8-3.2-41.6-8.8-61.6-.8-2.4 0-4 .8-6.4.8-1.6 3.2-3.2 4.8-4a48 48 0 0 0 32.8-26.4c-10.4 2.4-22.4 4-24 4.8-4 .8-7.2-1.6-8.8-4.8a7.6 7.6 0 0 1 2.4-9.6c4.8-4 8-13.6 9.6-21.6-7.2 8.8-16 20-28 25.6-4 1.6-8 .8-10.4-3.2l-.8-2.4c-.8-.8-.8-1.6-1.6-3.2a77.8 77.8 0 0 0-17.6-24A94.5 94.5 0 0 0 230 49.4a95.3 95.3 0 0 0-44.8 80.8v3.2l.8 3.2z"/></svg>