<svg xmlns="http://www.w3.org/2000/svg" viewBox="0 0 406.4 406.4"><path fill="#ee5656" d="M366.4 98.4V308c0 5.6-4.8 10.4-10.4 10.4H50.4c-5.6 0-10.4-4.8-10.4-10.4V98.4C40 92.8 44.8 88 50.4 88H356c5.6.8 10.4 4.8 10.4 10.4zM283.2 196c0-3.2-1.6-5.6-4-7.2l-112-56c-2.4-.8-5.6-.8-8 0-2.4 1.6-4 4-4 7.2v112c0 2.4 1.6 5.6 4 7.2 1.6.8 2.4.8 4 .8.8 0 2.4 0 3.2-.8l112-56c3.2-.8 4.8-4 4.8-7.2z"/><path fill="#fff8ef" d="M252.3 204.7l-72 38.3-.3-54.9c0-8 8.8-13.6 16-10.4l56.3 27z"/><path fill="#d9cdc1" d="M161.2 137.4v117.3l28.8-13.1V188c0-1.4.9-1.7 1-1.7l.1.1.2.1 55.1 27.1 33.5-16.8-118.7-59.4z"/><path fill="#42210b" d="M256.8 196l-86.4-43.2v86.4l8.8-4.8 65.6-32.8 12-5.6zm21.6 7.2l-112 56c-.8.8-2.4.8-3.2.8-1.6 0-3.2 0-4-.8-2.4-1.6-4-4-4-7.2V140c0-3.2 1.6-5.6 4-7.2a7.3 7.3 0 0 1 8 0l112 56c2.4 1.6 4 4 4 7.2s-1.6 6.4-4.8 7.2z"/><path fill="#e94545" d="M356 59H50.4A39 39 0 0 0 11 98.4V308a39 39 0 0 0 39.4 39.4H356a39 39 0 0 0 39.4-39.4V98.4A39 39 0 0 0 356 59zm5.4 249c0 2.8-2.6 5.4-5.4 5.4H50.4A5.7 5.7 0 0 1 45 308V98.4c0-2.8 2.6-5.4 5.4-5.4H356c2.8 0 5.4 2.6 5.4 5.4V308z"/><path fill="#42210b" d="M50.4 64.8A34.1 34.1 0 0 0 16 99.2v209.6a34.1 34.1 0 0 0 34.4 34.4H356a34.1 34.1 0 0 0 34.4-34.4V98.4A34.1 34.1 0 0 0 356 64H50.4v.8zM.8 98.4C.8 70.4 23.2 48 51.2 48H356c28 0 50.4 22.4 50.4 50.4V308c0 28-22.4 50.4-50.4 50.4H50.4A50.7 50.7 0 0 1 0 308V98.4h.8z"/></svg>