<svg xmlns="http://www.w3.org/2000/svg" viewBox="168.5 91.5 582.5 480"><path fill="#BB3900" d="M219 93a47 47 0 0 0-20.4 1.6c-3.2 1.1-5.8 2.9-6.5 6.8l-1 6a375 375 0 0 0-1.5 42.8 864 864 0 0 0 8 100.1c1.7 8.1 5.9 11.2 14.3 10.5 7-.2 14.2-1.2 21-3.2a37 37 0 0 0 14.6-8.1c11.8-11.3 10.6-25.7-2.8-34.8l-6.3-4a72.3 72.3 0 0 0 19-16.2A61.1 61.1 0 0 0 219 92.8v.2zm19.9 133.7c4.2 3.4 4.3 6.8 1.3 11.3a21 21 0 0 1-9.9 6.8c-1.4.7-2.3.5-2.6-1.4l-2-22.4c5 .6 9.5 2.5 13.2 5.7zm15.8-52.6a60.3 60.3 0 0 1-30.9 29.5c-3-32.4-4.3-64.2 0-96.4 3.9.5 7.6 1.8 10.9 3.9a47.5 47.5 0 0 1 23.8 33.3 42.2 42.2 0 0 1-3.8 29.7zm81.9-80.8c-1-.3-2.1-.7-3.3-.7-10.2-.5-20.3-1.4-30.7-.3-5.2.3-9.8 3.3-12.1 8-1.5 2.8-2.6 6-3.3 9.3-3.4 15.4-5 31.2-4.6 47 .6 16.4 1 31.3 2.4 46.3 1.3 12.2 2 24.3 4 36.3.8 4.2 1 8.5 2.6 12.7 3 8 5 9 12.8 9 7.7 0 15.2-1.7 23-2.7l7.9-1.6c4-1.1 6.3-4.8 5.1-8.4-1-3.5-4.8-5.3-9.2-3.9-3.2 1.2-6.4 1.3-9.7 2-2.6.6-2.9.3-3.2-2.5l-2.4-22c-.4-2.7 0-2.9 3-2.9l5.9.5c3.5 0 6.1-2 7-4.5a6 6 0 0 0-2.5-6.8 8 8 0 0 0-4.7-1.3H317c-2.1 0-2.8-.8-3-2.6 0-2.2 0-4.7-.6-6.8-1.6-18.9-.8-37.7 1.7-56.4l4.8-31.2c.8-5.5.7-5.5 6.5-5l2.6.3c2 .1 4.3.3 6.3.1a6 6 0 0 0 5.5-5.3 6.5 6.5 0 0 0-4.2-6.5v-.1zm143 26.7a40.1 40.1 0 0 0-12.8-21.5 25 25 0 0 0-12.7-6.2c-9.3-1.8-17.7.7-25.8 5.5a53 53 0 0 0-18.6 20.2 91.6 91.6 0 0 0-11 39c-1.8 29.1 4 58 17.1 84.1 3.6 6.3 7.6 12 14 15.8 7.2 4.6 14.6 5.4 22.2.9 3.7-2.4 7-5.5 9.4-9.1 5.8-9 9.7-19 11.7-29.6l.1-2.6c0-4-3.2-7.3-6.8-7.3-3.2 0-6 2.6-6.4 6.5-.9 6-2.6 11.8-5 17.3-1 2.1-1.8 4.5-3.6 6.3a8.4 8.4 0 0 1-3.2-4 79.1 79.1 0 0 1-6-11.7 131.6 131.6 0 0 1-4.6-84 42.5 42.5 0 0 1 16.9-24.2c7.2-4.8 7-3.2 10.2 2.6 1 2.1 1.6 4.6 2.4 6.8 1.6 3.6 4.8 5.7 7.7 4.7 3.6-1 5.5-4.2 4.9-8V120zm81.6-6.3c-12.3-31.4-47.4-27.4-62.6 10.3-9 22.4-11.8 46.7-8.2 70.5a135 135 0 0 0 14.4 46.3c2.2 4.2 4.8 8.4 8.4 11.8 8 8.2 21.5 12.3 33.6 3.5 4.9-3.5 9.2-8 12.5-13.7 3.5-6.2 5.8-13 7.4-19.6 8.6-36 6.7-74-5.5-109v-.1zm-2.7 71.8c-.4 12.6-2.3 25-5.9 37.2a43 43 0 0 1-8 16.5c-4.4 5.1-6.4 4.8-9.3-1.3a96 96 0 0 1-10.3-36.6c-1.6-21 0-42 5.1-62.7 2.5-10.3 7-20 13-28.7 7.4 6.7 13 32.7 14.5 48.2 1 9 1.2 18.1.9 27.4zm92.3-71.8c-12.3-31.4-47.2-27.4-62.6 10.3-9 22.4-11.7 46.7-8 70.5 1.9 16.2 6.7 31.8 14.2 46.3a56 56 0 0 0 8.4 11.8c8 8.2 21.6 12.3 33.6 3.5 5-3.5 9.4-8 12.6-13.7 3.4-6.2 5.7-13 7.3-19.6 4.8-19.9 6.5-40 4.8-60.5-1-16.6-4.5-33-10.3-48.5v-.1zm-2.6 71.8a147 147 0 0 1-5.7 37.2 43 43 0 0 1-8 16.5c-4.6 5.1-6.3 4.8-9.4-1.3a98.7 98.7 0 0 1-10.2-36.6c-1.6-21-.2-42 5.2-62.7 2.5-10.3 6.8-20 13-28.7 7.3 6.7 12.8 32.7 14.3 48.2 1 9.1 1.4 18.2.8 27.4zm73.1 58.8l-11.8 2c-1.6.3-3 0-2.7-2.3v-1.8c.3-20.3-.7-40.6.4-61 .7-14.3 2.3-28.7 4.4-43 1-8 4.5-26.2 4.9-34.2.4-6.5-2.5-9.8-9-10.7-4.5-.8-8.8-.3-13.4-1.3-6.8-1.6-10.5 1-12 8-1 5.6-2 11.4-2.7 17.2a1287 1287 0 0 0-7.4 90 286 286 0 0 0 .1 24.5c.4 6.2.9 12.5 2.6 18.6a13 13 0 0 0 9.4 9.6l7.5 1c5 0 9.8-.7 14.8-1 6-.5 11.8-1.7 17.5-2.6 4.8-1 7.3-4.2 6.1-8.3-1-3.7-4.3-5.6-8.7-4.7zM574.8 518.8c-9 1.4-17.8-1.6-24-8.6-7.9-8.7-21.8 3.2-13.9 12a25 25 0 0 0 3.8 3.5c-23.8 27.5-62.8 30.1-96.6 26-11.6-1.4-13.2 17-1.6 18.3 41.4 4.9 86.5-.8 114.2-34.9a46 46 0 0 0 21.5 1.6c11.5-2 8.2-20-3.4-18z"/><path d="M750.9 333.6l-2.4-14.3c-.7-3.7-1.6-7.6-3.6-11.1a9.4 9.4 0 0 0-8.9-5.5h-6.4c-4.9 0-9.7-1-14.3-3.3-4.2-1.9-8-4.2-12.1-6.4a115.5 115.5 0 0 0-59.4-18c-12.6-.1-25 .4-37.6 1.6l-20 2.1-19.2 2-26.3 2.6-20.6 2c-9.5.7-19 2-28.4 2.8-5.2.4-10 1-15 1.6l-5.1 1-11.8 2.1c-10.7-1.6-21-3.9-31.9-4.8-9.5-.7-19-2-28.4-2.8l-20.6-2-26.3-2.5-19.4-2-20-2c-4.6-.5-9.1-1-14-1.2-7.8-.4-15.6-.6-23.4-.5a127 127 0 0 0-59.6 17.8l-12 6.8a31.4 31.4 0 0 1-14.2 3h-6.4c-3.8-.1-7.4 2-9 5.6a40 40 0 0 0-3.6 11.1l-2.3 14.3-.2 1.6c0 2.6.7 4 3.3 4.8l7.7 1.5 12.2 1.5c1.2 0 2 .6 2.4 1.9.3 2 .8 4 1 6.3l1 17a147 147 0 0 0 7.2 40c7 18.8 19 35.1 35 47.2 15.3 11.8 33.2 20 52.2 23.9 18 3.9 36.7 5.3 55.1 4.4C366 483 386 478 404.3 469c6.4-3.4 12.1-8 16.8-13.4 8.1-9 14-19.4 18.2-30.6 3.4-8.9 5.8-18 7.2-27.5l5.2-31.2 1.6-11.8.2-1.1c.3-2.8.6-3 3.2-3.4l3-.4 3.2.4c2.6.5 2.9.6 3.2 3.4v1.1l1.6 11.8 5.4 31.2c1.2 9.4 3.7 18.7 7.2 27.5a101.3 101.3 0 0 0 18.1 30.7 64.2 64.2 0 0 0 16.9 13.3c18.2 9 38.2 14 58.5 14.6 18.6 1 37.2-.5 55.3-4.4 19-4 36.9-12.1 52.3-24a106.7 106.7 0 0 0 34.7-47c4.4-13 7-26.5 7.5-40.1l1-17c0-2.3.4-4.2 1-6.5 0-1.1 1-1.6 2.3-1.7l12.2-1.7c2.6-.3 5-.6 7.6-1.3 2.6-.6 3.4-2.2 3.4-4.8l-.2-1.6z"/></svg>