<svg xmlns="http://www.w3.org/2000/svg" viewBox="0 0 512 512"><path fill="#fff" d="M222.9 388h51.5a8 8 0 0 0 8-8V264H309a8 8 0 0 0 8-7l4.5-43.9a8 8 0 0 0-8-8.8h-31.2v-17.7c0-3.7 1.1-4 3-4H313a8 8 0 0 0 8-8v-42.4a8 8 0 0 0-8-8l-38.2-.2c-26.7 0-41 11.8-48.2 21.6a65.9 65.9 0 0 0-11.7 38.4v20.3h-16.5a8 8 0 0 0-8 8v43.8a8 8 0 0 0 8 8h16.5V380a8 8 0 0 0 8 8zm-16.5-140v-27.7h16.5a8 8 0 0 0 8-8V184c0-5.2.8-18.4 8.5-28.9 7.4-10 19.3-15.1 35.4-15.1l30.2.1v26.6h-19.7c-9.4 0-19 6.1-19 19.9v25.7a8 8 0 0 0 8 8h30.5l-2.9 27.8h-27.5a8 8 0 0 0-8 8V372h-35.5V256a8 8 0 0 0-8-8h-16.5z"/><path fill="#fff" d="M437 75A254.3 254.3 0 0 0 256 0C187.6 0 123.3 26.6 75 75S0 187.6 0 256s26.6 132.7 75 181a254.3 254.3 0 0 0 181 75 254 254 0 0 0 181-75 254.3 254.3 0 0 0 75-181 254 254 0 0 0-75-181zm-11.3 350.7A238.4 238.4 0 0 1 256 496c-64.1 0-124.4-25-169.7-70.3A238.4 238.4 0 0 1 16 256c0-64.1 25-124.4 70.3-169.7A238.4 238.4 0 0 1 256 16c64.1 0 124.4 25 169.7 70.3A238.4 238.4 0 0 1 496 256c0 64.1-25 124.4-70.3 169.7z"/><path fill="#fff" d="M430 115a8 8 0 1 0-12.4 10 208.4 208.4 0 0 1-14.5 278 207.6 207.6 0 0 1-285.7 8 8 8 0 0 0-10.7 12 223.6 223.6 0 0 0 307.7-8.6A224 224 0 0 0 430 115zM48 256a208.2 208.2 0 0 1 346.7-155 8 8 0 1 0 10.6-12 223.6 223.6 0 0 0-307.7 8.6A224 224 0 0 0 82 397a8 8 0 1 0 12.4-10A208.4 208.4 0 0 1 48 256z"/></svg>