<svg xmlns="http://www.w3.org/2000/svg" viewBox="0 0 512 512"><path fill="#fff" d="M437 75A254.3 254.3 0 0 0 256 0C187.6 0 123.3 26.6 75 75S0 187.6 0 256s26.6 132.7 75 181a254.3 254.3 0 0 0 181 75 254 254 0 0 0 181-75 254.3 254.3 0 0 0 75-181 254 254 0 0 0-75-181zm-11.3 350.7A238.4 238.4 0 0 1 256 496c-64.1 0-124.4-25-169.7-70.3A238.4 238.4 0 0 1 16 256c0-64.1 25-124.4 70.3-169.7A238.4 238.4 0 0 1 256 16c64.1 0 124.4 25 169.7 70.3A238.4 238.4 0 0 1 496 256c0 64.1-25 124.4-70.3 169.7z"/><path fill="#fff" d="M430 115a8 8 0 1 0-12.4 10 208.5 208.5 0 0 1-14.5 278 207.6 207.6 0 0 1-285.7 8 8 8 0 0 0-10.7 12 223.6 223.6 0 0 0 307.7-8.6A224 224 0 0 0 430 115zM48 256a208.2 208.2 0 0 1 346.7-155 8 8 0 1 0 10.6-12 223.6 223.6 0 0 0-307.7 8.6A224 224 0 0 0 82 397a8 8 0 1 0 12.4-10A208.4 208.4 0 0 1 48 256z"/><path fill="#fff" d="M277.8 303.6a38.1 38.1 0 0 1-21.7 5.4c-6.5 0-11.8-.9-15.4-2.6a21 21 0 0 1-8-6c-2.2-3-4.4-6.9-6.4-11.6a39 39 0 0 0-9.9-14.1 25.4 25.4 0 0 0-16.6-5.9c-7.4 0-14 2.5-19 7.3-5.2 4.8-8 11.1-8 18 0 9.4 3.3 18.8 9.8 28 6.2 9 14.3 16.3 24.2 21.6a107 107 0 0 0 50.3 10.7c16.6 0 31.3-2.6 43.7-7.7a67 67 0 0 0 29.9-22.8 57 57 0 0 0 10.5-33.7c0-10.3-2.1-19.3-6.3-26.8a52.2 52.2 0 0 0-17.2-18.2c-6.7-4.4-14.9-8.1-24.2-11.1-8.7-2.8-18.6-5.4-29.5-7.7l-17.6-4.3c-3-.9-6-2-9-3.5-2.3-1.2-4-2.5-5.1-3.9-.5-.5-.8-1.2-.8-2.4 0-.9 0-2.9 4.5-5.8a33 33 0 0 1 18-4.3c11 0 15.3 2.2 17 3.4a35.2 35.2 0 0 1 9.5 12.1c3.3 5.6 6.3 9.5 9.4 12.3a24 24 0 0 0 16.5 5.5 26 26 0 0 0 19.1-8c5-5.2 7.6-11.4 7.6-18.1 0-6.2-1.7-12.4-5-18.6-3.2-6-8.2-11.6-14.8-16.8a75 75 0 0 0-24-12c-9.3-2.9-20.3-4.3-32.7-4.3-15.5 0-29.2 2.1-41 6.5a62.6 62.6 0 0 0-28.7 20.1 50 50 0 0 0-10.5 31.2 48 48 0 0 0 10.2 31c6.3 8 14.9 14.3 25.4 18.7 9.6 4.1 21.6 7.7 35.6 10.7 9.6 2 17.4 4 23 5.7a28 28 0 0 1 10.8 5.8c1.3 1.2 2.5 2.9 2.5 6.6 0 2.7-.7 5.9-6 9.6zm14.6-27.8a43.8 43.8 0 0 0-17-9.5c-6.2-1.9-14.4-4-24.5-6-13-2.8-24-6.1-32.6-9.8a46.8 46.8 0 0 1-19.2-14 32.9 32.9 0 0 1-6.7-21c0-8 2.4-15.3 7.2-21.5a47 47 0 0 1 21.6-14.8 102 102 0 0 1 35.4-5.6 96 96 0 0 1 28 3.7c7.6 2.3 14 5.5 18.9 9.3a39 39 0 0 1 10.5 11.7c2 3.9 3.1 7.6 3.1 11 0 2.7-1 4.9-3 7a9.9 9.9 0 0 1-7.7 3.2c-2.7 0-4.8-.5-5.9-1.4a35.5 35.5 0 0 1-6-8.3 50.8 50.8 0 0 0-13.9-17c-5.8-4.4-14.5-6.6-26.5-6.6-11 0-20 2.4-27 7-7.7 5-11.6 11.4-11.6 19 0 4.9 1.5 9.1 4.4 12.7 2.5 3 6 5.8 10.3 8a64 64 0 0 0 12 4.6 463.8 463.8 0 0 0 18.4 4.5 297 297 0 0 1 28 7.3c8 2.6 14.8 5.7 20.3 9.3a34.7 34.7 0 0 1 16.3 31.7c0 9-2.5 17.2-7.6 24.3a51.4 51.4 0 0 1-23 17.3 98 98 0 0 1-37.5 6.5c-17.3 0-31.7-3-42.8-8.8a52.8 52.8 0 0 1-18.6-16.5c-4.5-6.6-6.9-13-6.9-19 0-2.5 1-4.5 3-6.4 2-2 4.6-2.9 8-2.9 2.6 0 4.7.7 6.3 2.1 2 1.7 3.9 4.5 5.5 8.3A68.5 68.5 0 0 0 220 310c3.3 4.4 8 8 13.9 10.9A52.6 52.6 0 0 0 256 325c12.4 0 22.8-2.8 30.7-8.2 8.7-6 13.1-13.6 13.1-22.8a24 24 0 0 0-7.5-18.2z"/><path fill="#fff" d="M257.5 395.1c7.5 0 15-.6 22.5-1.8A83.5 83.5 0 0 0 392.9 284a138.1 138.1 0 0 0-156-163.3 83.5 83.5 0 0 0-115.2 111.7 138.2 138.2 0 0 0 135.8 162.8zM195 125.4a67 67 0 0 1 35.9 10.4 8 8 0 0 0 5.6 1.1 122.1 122.1 0 0 1 140 146.4 8 8 0 0 0 .7 5.3 67.5 67.5 0 0 1-92.3 89.3 8 8 0 0 0-5.2-.8 122.1 122.1 0 0 1-141.9-144.5c.4-2 0-4-1-5.7A67.4 67.4 0 0 1 195 125.4z"/></svg>