<svg xmlns="http://www.w3.org/2000/svg" viewBox="0 0 512 512"><path fill="#fff" d="M437 75A254.3 254.3 0 0 0 256 0C187.6 0 123.3 26.6 75 75S0 187.6 0 256s26.6 132.7 75 181a254.3 254.3 0 0 0 181 75 254 254 0 0 0 181-75 254.3 254.3 0 0 0 75-181 254 254 0 0 0-75-181zm-11.3 350.7A238.4 238.4 0 0 1 256 496c-64.1 0-124.4-25-169.7-70.3A238.4 238.4 0 0 1 16 256c0-64.1 25-124.4 70.3-169.7A238.4 238.4 0 0 1 256 16c64.1 0 124.4 25 169.7 70.3A238.4 238.4 0 0 1 496 256c0 64.1-25 124.4-70.3 169.7z"/><path fill="#fff" d="M430 115a8 8 0 1 0-12.4 10 208.5 208.5 0 0 1-14.5 278 207.6 207.6 0 0 1-285.7 8 8 8 0 0 0-10.7 12 223.6 223.6 0 0 0 307.7-8.6A224 224 0 0 0 430 115zM48 256a208.2 208.2 0 0 1 346.7-155 8 8 0 1 0 10.6-12 223.6 223.6 0 0 0-307.7 8.6A224 224 0 0 0 82 397a8 8 0 1 0 12.4-10A208.4 208.4 0 0 1 48 256z"/><path fill="#fff" d="M398.7 194.8a8 8 0 0 0-10-11.8l-.5.3c1.8-3.4 3.4-7 4.6-10.7a8 8 0 0 0-11.7-9.3c-8 4.8-16.7 8.3-25.7 10.5a59 59 0 0 0-98.5 46.3 137 137 0 0 1-89.4-49.4 8 8 0 0 0-13.1 1 58.9 58.9 0 0 0-1 57.7 8 8 0 0 0-7.4 8v.6a59 59 0 0 0 20.6 44.7 8 8 0 0 0-2.4 8.5 58.8 58.8 0 0 0 34.3 36.7 93.7 93.7 0 0 1-53.6 9.3 8 8 0 0 0-5.2 14.7c24.6 15.8 53 24.1 82.3 24.1 57.5 0 93.4-27.1 113.5-49.9a157.9 157.9 0 0 0 39.2-105.5c9.3-7.3 17.4-16 24-25.8zm-36.8 15.4a8 8 0 0 0-3.3 6.9l.2 6.1c0 33.3-12.9 66.9-35.3 92.3A130.9 130.9 0 0 1 222 360c-15.8 0-31.3-2.7-45.9-8a109 109 0 0 0 48.2-21.6 8 8 0 0 0-4.8-14.3 43 43 0 0 1-34.6-18.6c4-.2 8-.9 12-2a8 8 0 0 0-.6-15.5 43 43 0 0 1-32.7-30.2c4.3 1.1 8.7 1.8 13.1 1.9a8 8 0 0 0 4.8-14.6 42.8 42.8 0 0 1-17.8-46.5 152.8 152.8 0 0 0 102 46.3 8 8 0 0 0 8.2-9.8 43 43 0 0 1 41.8-52.6c11.8 0 23.2 4.9 31.3 13.5a8 8 0 0 0 7.4 2.4c3-.6 6-1.3 9-2.2-1.5 1.2-3 2.3-4.7 3.3a8 8 0 0 0 5 14.8l4-.6-5.8 4.5z"/></svg>