<svg xmlns="http://www.w3.org/2000/svg" viewBox="0 0 512 512"><path fill="#fff" d="M437 75A254.3 254.3 0 0 0 256 0C187.6 0 123.3 26.6 75 75S0 187.6 0 256s26.6 132.7 75 181a254.3 254.3 0 0 0 181 75 254 254 0 0 0 181-75 254.3 254.3 0 0 0 75-181 254 254 0 0 0-75-181zm-11.3 350.7A238.4 238.4 0 0 1 256 496c-64.1 0-124.4-25-169.7-70.3A238.4 238.4 0 0 1 16 256c0-64.1 25-124.4 70.3-169.7A238.4 238.4 0 0 1 256 16c64.1 0 124.4 25 169.7 70.3A238.4 238.4 0 0 1 496 256c0 64.1-25 124.4-70.3 169.7z"/><path fill="#fff" d="M430 115a8 8 0 1 0-12.4 10 208.5 208.5 0 0 1-14.5 278 207.6 207.6 0 0 1-285.7 8 8 8 0 0 0-10.7 12 223.6 223.6 0 0 0 307.7-8.6A224 224 0 0 0 430 115zM48 256a208.2 208.2 0 0 1 346.7-155 8 8 0 1 0 10.6-12 223.6 223.6 0 0 0-307.7 8.6A224 224 0 0 0 82 397a8 8 0 1 0 12.4-10A208.4 208.4 0 0 1 48 256z"/><path fill="#fff" d="M393.8 199.2c-.3-2.2-3.2-22.1-12.5-32.2a42.8 42.8 0 0 0-29.8-14.3l-1.5-.2h-.4c-36.7-2.9-92.2-2.9-92.8-2.9a1523.5 1523.5 0 0 0-94.7 3 43 43 0 0 0-29.9 14.4c-9.3 10-12.1 30-12.4 32.2v.1a456 456 0 0 0-2.7 46.4v21.4c0 23 2.5 45.4 2.6 46.4.4 2.3 3.2 22.2 12.5 32.3 10.3 11.5 23.4 13.1 30.4 14l3 .5.8.1c21.2 2.2 87.5 2.8 90.4 2.9a1579.8 1579.8 0 0 0 93.2-3l1.5-.2c6.1-.6 18.7-2 29.8-14.3 9.3-10 12.2-30 12.5-32.2v-.1c.1-1 2.7-23.5 2.7-46.4v-21.4c0-22.9-2.6-45.4-2.7-46.4zm-13.3 67.9c0 21.4-2.4 43.1-2.6 44.5-.6 4.4-3.4 18-8.4 23.4v.1c-7 7.8-14.6 8.6-19.6 9.1l-1.7.2a1624 1624 0 0 1-91.3 2.9c-.7 0-67.7-.7-88.5-2.8l-3.7-.5c-6-.8-14.2-1.8-20.6-9-4.5-4.8-7.6-17-8.5-23.4-.1-1.4-2.5-23.2-2.5-44.5v-21.4a448 448 0 0 1 2.5-44.5c.6-4.4 3.4-18 8.4-23.4l.1-.1c7-7.8 14.6-8.6 19.6-9.1l1.6-.2a1509 1509 0 0 1 91.4-2.8h.1a1509.3 1509.3 0 0 1 93 3c5 .5 12.7 1.3 19.7 9v.2c4.5 4.8 7.5 16.9 8.4 23.5a448 448 0 0 1 2.6 44.4v21.4z"/><path fill="#fff" d="M310.4 249.6L228 200.2a8 8 0 0 0-12.1 6.8v99a8 8 0 0 0 12.1 6.8l82.4-49.4a8 8 0 0 0 0-13.7zm-78.5 42.1v-70.5l58.8 35.2-58.8 35.3z"/></svg>